<mxfile host="app.diagrams.net" modified="2023-07-16T13:29:23.670Z" agent="Mozilla/5.0 (Macintosh; Intel Mac OS X 10_15_7) AppleWebKit/537.36 (KHTML, like Gecko) Chrome/114.0.0.0 Safari/537.36" version="21.6.2" etag="4ENsI3wlqpniedXAc4gE" type="github">
  <diagram name="페이지-1" id="9nXzf34y3TBN7mc7xwQ7">
    <mxGraphModel>
      <root>
        <mxCell id="0" />
        <mxCell id="1" parent="0" />
      </root>
    </mxGraphModel>
  </diagram>
</mxfile>
